<svg xmlns="http://www.w3.org/2000/svg" viewBox="0 0 773.51 139.42"><defs><style>.cls-1{fill:#1d1d1b;}.cls-2{fill:#ff4d13;stroke:#ff4d13;stroke-miterlimit:22.93;stroke-width:7.62px;}</style></defs><title>icon-qe</title><g id="Layer_2" data-name="Layer 2"><g id="Layer_1-2" data-name="Layer 1"><g id="Слой_1"><g id="_1641695341536" data-name=" 1641695341536"><path class="cls-1" d="M193.11,70.41c0,21.2,5.1,37.2,19.3,48.6,18.2,14.7,39.7,16.7,66.1,16.3,22.4-.4,24.4-1,48.2-6l.1-27.2c-18.3,6.3-28.7,8.1-46.5,8.1-15.2,0-31.9-3.5-37.5-13a50.09,50.09,0,0,1-7.1-26.8c0-11.7,1.8-21.6,8.1-28.6,7.1-7.9,22.6-11.2,36.7-11.2,14.9,0,27.1,1.8,46,7.6l.1-27.4c-23.6-5.5-25.7-7-47.9-7-26.2,0-49.2,2.7-66.8,15.3-15.6,11.2-18.8,28.3-18.8,51.3Zm285.3,0c0,11.9.5,22.3-6.1,29.5-6.3,7-19.1,10.4-33.7,10.4-14.4,0-28.6-2.7-33.7-9.9-6.5-9.1-6.1-18-6.1-29.9,0-13.1.1-24.2,7.9-31.3,6.4-5.8,18.8-8.6,31.9-8.6,12.8,0,26.1,3,32.1,8.6C478.61,46.31,478.41,58.21,478.41,70.41Zm-119.2,0c0,22.5,2.5,39.8,17.3,51.5,15.2,12.1,37.4,13.2,62.2,13.2,28,0,50.2-2.7,65.7-16.8,12.8-11.7,12.9-27.9,12.9-47.9,0-22.5-2.7-40.1-18.1-51.8s-37.4-14.9-60.7-14.9c-26.2,0-47.6,3.9-62.5,16.2S359.21,49.51,359.21,70.41ZM549,3.81v131.4h43.2V38.71a40.7,40.7,0,0,1,24.6-7.4c9.7,0,15.8,2.2,19.6,6.1s5.2,9.5,5.2,16.2v81.6H685v-97c7.8-5.8,11.8-6.9,21.7-6.9,7.3,0,12.9,1.5,16.5,4.3,5.3,4,7.1,10.4,7.1,18v81.6h43.2V55.81c0-20.3-6.4-33.5-19.9-42.1-10.1-6.5-24.8-9.9-42.3-9.9-20.4,0-32.3-.1-44.4,8.5-9.3-8.9-34.6-8.5-48.6-8.5-16,0-24.1,1.7-33.5,8.5l-.2-8.4L549,3.81Z"/><path class="cls-2" d="M3.81,76.31c.3,19.4,8.4,34.5,21.7,44.2,13.6,9.9,32.7,15.1,54.2,15.1,22.9,0,41.7-5.6,55-15.6a130.92,130.92,0,0,1-15.6.9c-21.5,0-40.6-5.2-54.2-15.1-13.3-9.7-21.5-24.8-21.7-44.2V3.81H3.81Zm146.1-72.5h-39.4V78a36.83,36.83,0,0,1-2,13.1,37.27,37.27,0,0,0,11.1,1.5c11,0,18.6-3,23-7.8,5.2-5.6,7.3-12.1,7.3-21.6V3.81Z"/></g></g></g></g></svg>